<svg xmlns="http://www.w3.org/2000/svg" class="svg replaced-svg" id="Capa_1" style="enable-background:new 0 0 190.811 190.811;" viewBox="0 0 190.811 190.811" x="0px" y="0px" width="190.811px" height="190.811px" xmlns:xlink="http://www.w3.org/1999/xlink" xmlns:xml="http://www.w3.org/XML/1998/namespace" xml:space="preserve" version="1.1">
<g>
	<g>
		<path d="M 186.064 79.546 c -4.89 -5.8 -11.703 -8.269 -15.095 -5.443 c -1.681 1.416 -0.919 3.385 -0.39 4.832 c 0.651 1.766 0.98 2.926 0.049 4.08 c -1.108 1.364 -3.946 1.632 -6.941 1.912 c -3.459 0.332 -7.368 0.694 -10.054 2.962 c -7.276 6.123 -7.197 16.7 -6.789 21.23 c -3.337 0.407 -7.276 0.256 -11.953 -0.171 c 5.943 -2.338 9.834 -7.002 10.997 -13.7 c 0.14 -0.853 -0.414 -1.656 -1.267 -1.803 c -0.901 -0.152 -1.668 0.427 -1.803 1.267 c -1.461 8.525 -7.952 13.092 -18.347 12.86 c -0.104 0 -0.146 0.085 -0.243 0.098 c -0.402 -0.062 -0.798 -0.11 -1.206 -0.158 c -3.215 -0.487 -6.533 -0.98 -9.864 -1.249 c 5.213 -2.186 8.708 -6.07 11.393 -10.467 c 0.226 -0.164 0.421 -0.384 0.542 -0.651 c 0.086 -0.207 0.135 -0.414 0.201 -0.628 c 1.498 -2.63 2.789 -5.379 4.013 -8.037 c 0.128 -0.268 0.244 -0.512 0.378 -0.779 c 0.061 -0.061 0.134 -0.113 0.183 -0.18 c 4.152 -6.71 9.742 -8.973 15.783 -6.366 c 0.779 0.316 1.698 -0.024 2.058 -0.816 c 0.341 -0.794 -0.036 -1.69 -0.821 -2.046 c -4.476 -1.927 -8.799 -1.684 -12.647 0.5 c 1.559 -2.646 3.245 -5.24 4.518 -7.003 c 0.293 0.484 0.64 0.935 1.066 1.327 c 0.767 0.704 1.698 1.19 2.716 1.435 c 1.278 0.316 2.654 0.194 3.86 -0.317 c 0.597 1.157 1.546 2.131 2.74 2.731 c 0.858 0.423 1.784 0.648 2.758 0.648 c 0.024 0 0.244 -0.012 0.269 -0.012 c 1.29 -0.07 2.49 -0.512 3.501 -1.291 c 0.998 0.621 2.204 0.953 3.538 0.953 c 0.012 0 0.012 0 0.023 0 c 1.023 -0.024 2.047 -0.338 2.99 -0.898 c 1.157 -0.713 2.01 -1.748 2.479 -2.969 c 1.242 0.393 2.594 0.405 3.896 -0.024 c 0.986 -0.362 1.888 -0.929 2.558 -1.689 c 0.871 -0.929 1.413 -2.131 1.559 -3.361 c 1.255 -0.28 2.399 -0.916 3.252 -1.875 c 0.682 -0.767 1.182 -1.696 1.438 -2.725 c 0.316 -1.303 0.183 -2.664 -0.329 -3.848 c 1.163 -0.6 2.106 -1.546 2.716 -2.743 c 0.475 -0.928 0.694 -1.952 0.646 -3.011 c -0.067 -1.291 -0.512 -2.499 -1.291 -3.504 c 0.67 -1.072 1.022 -2.326 0.962 -3.629 c -0.061 -1.059 -0.384 -2.07 -0.913 -2.926 c -0.688 -1.154 -1.718 -2.006 -2.96 -2.481 c 0.396 -1.233 0.396 -2.582 -0.018 -3.867 c -0.329 -0.995 -0.914 -1.894 -1.693 -2.594 c -0.925 -0.871 -2.119 -1.419 -3.386 -1.577 c -0.268 -1.221 -0.907 -2.351 -1.851 -3.215 c -0.792 -0.731 -1.699 -1.23 -2.728 -1.462 c -1.291 -0.292 -2.68 -0.173 -3.861 0.338 c -0.597 -1.172 -1.546 -2.134 -2.733 -2.713 c -0.853 -0.429 -1.814 -0.661 -3.021 -0.648 c -1.285 0.058 -2.49 0.5 -3.508 1.267 c -0.998 -0.63 -2.204 -0.968 -3.58 -0.968 c -0.012 0 -0.024 0 -0.036 0 c -1.048 0.064 -2.059 0.381 -2.936 0.91 c -1.15 0.707 -1.997 1.754 -2.484 2.987 c -1.242 -0.411 -2.654 -0.399 -3.86 0.015 c -0.992 0.329 -1.899 0.907 -2.606 1.681 c -0.864 0.962 -1.4 2.135 -1.553 3.374 c -1.229 0.268 -2.356 0.911 -3.221 1.867 c -0.719 0.767 -1.218 1.689 -1.455 2.73 c -0.323 1.315 -0.195 2.655 0.316 3.86 c -1.175 0.585 -2.113 1.525 -2.71 2.729 c -0.45 0.913 -0.682 1.954 -0.651 3.038 c 0.073 1.291 0.53 2.487 1.297 3.492 c -0.676 1.06 -1.029 2.311 -0.98 3.617 c 0.073 1.084 0.384 2.095 0.907 2.923 c 0.694 1.154 1.729 2.006 2.972 2.487 c -0.396 1.242 -0.408 2.594 0.019 3.849 c 0.316 0.986 0.901 1.894 1.687 2.63 c 0.591 0.524 1.267 0.886 1.985 1.154 c -2.156 2.92 -5.396 8.144 -7.234 11.703 c -0.943 1.827 -1.839 3.767 -2.728 5.736 c -0.42 -3.023 -1.778 -5.666 -4.031 -7.818 c 2.911 -0.387 6.808 -2.07 8.294 -8.236 c 1.911 -7.852 -3.265 -12.154 -13.481 -17.367 c -3.666 -1.921 -7.027 -4.545 -11.527 -11.273 c -0.061 -0.089 -0.161 -0.131 -0.237 -0.186 c -0.079 -0.094 -0.131 -0.131 -0.229 -0.207 c -0.325 -0.186 -0.648 -0.329 -0.962 -0.28 l 0 0 c -0.013 0 -0.013 0 -0.013 0 s 0 0 -0.012 0 c -0.374 0.048 -0.654 0.243 -0.91 0.499 c -0.067 0.061 -0.131 0.131 -0.161 0.204 c -0.052 0.076 -0.131 0.131 -0.174 0.225 c -0.374 0.862 -9.03 21.239 -3.139 33.442 c 1.985 4.07 5.337 6.795 10.001 8.034 c 0.433 0.134 0.907 0.177 1.462 0.177 c 1.687 0 4.098 -0.618 5.79 -2.326 c 0.561 -0.572 0.956 -1.254 1.267 -1.964 c 5.036 3.255 6.406 8.711 3.892 15.497 c -3.148 5.456 -7.174 9.841 -14.31 11.204 c -3.611 0.682 -7.14 0.03 -10.151 -1.699 c 3.483 -3.367 5.766 -8.043 6.196 -13.298 c 0.082 -0.874 -0.561 -1.611 -1.428 -1.69 c -0.847 -0.131 -1.607 0.561 -1.69 1.428 c -0.386 4.689 -2.469 8.83 -5.623 11.704 c -3.172 -2.874 -5.236 -7.015 -5.623 -11.704 c -0.083 -0.874 -0.844 -1.546 -1.69 -1.428 c -0.874 0.079 -1.498 0.816 -1.428 1.69 c 0.423 5.255 2.725 9.931 6.196 13.298 c -3.029 1.729 -6.546 2.399 -10.157 1.699 c -7.139 -1.363 -11.161 -5.748 -14.309 -11.204 c -2.518 -6.786 -1.148 -12.242 3.891 -15.497 c 0.311 0.71 0.697 1.41 1.267 1.964 c 1.69 1.708 4.083 2.326 5.791 2.326 c 0.551 0 1.029 -0.063 1.446 -0.177 c 4.665 -1.239 8.026 -3.964 10.002 -8.034 c 5.894 -12.203 -2.756 -32.599 -3.136 -33.442 c -0.042 -0.106 -0.131 -0.137 -0.167 -0.225 c -0.049 -0.092 -0.119 -0.144 -0.167 -0.204 c -0.25 -0.256 -0.548 -0.451 -0.91 -0.499 c -0.012 0 -0.012 0 -0.012 0 s 0 0 -0.012 0 l 0 0 c -0.308 -0.049 -0.648 0.094 -0.95 0.28 c -0.113 0.07 -0.167 0.131 -0.268 0.231 c -0.073 0.067 -0.149 0.106 -0.204 0.162 c -4.509 6.71 -7.87 9.353 -11.524 11.262 c -10.22 5.225 -15.396 9.526 -13.493 17.378 c 1.489 6.166 5.38 7.867 8.293 8.236 c -2.226 2.152 -3.581 4.795 -4.022 7.818 c -0.892 -1.952 -1.778 -3.909 -2.731 -5.736 c -1.839 -3.559 -5.087 -8.783 -7.246 -11.703 c 0.73 -0.268 1.422 -0.643 2.009 -1.172 c 0.779 -0.712 1.364 -1.62 1.668 -2.594 c 0.438 -1.254 0.426 -2.605 0.04 -3.848 c 1.203 -0.466 2.238 -1.34 2.941 -2.47 c 0.536 -0.858 0.862 -1.869 0.917 -2.986 c 0.058 -1.279 -0.292 -2.518 -0.971 -3.59 c 0.767 -0.974 1.215 -2.195 1.297 -3.504 c 0.031 -1.048 -0.201 -2.095 -0.648 -2.987 c -0.6 -1.202 -1.546 -2.183 -2.712 -2.749 c 0.511 -1.206 0.642 -2.533 0.311 -3.849 c -0.241 -1.047 -0.728 -1.957 -1.446 -2.73 c -0.84 -0.917 -1.927 -1.559 -3.224 -1.839 c -0.149 -1.255 -0.685 -2.457 -1.565 -3.413 c -0.704 -0.765 -1.602 -1.358 -2.579 -1.675 c -1.23 -0.438 -2.627 -0.438 -3.873 -0.024 c -0.505 -1.229 -1.379 -2.277 -2.5 -2.989 c -0.88 -0.542 -1.903 -0.859 -3.249 -0.907 c -1.175 0 -2.338 0.341 -3.325 0.965 c -1.011 -0.768 -2.29 -1.209 -3.784 -1.279 c -0.962 0 -1.891 0.219 -2.707 0.648 c -1.19 0.594 -2.171 1.546 -2.749 2.725 c -1.178 -0.512 -2.558 -0.63 -3.86 -0.332 c -1.017 0.226 -1.946 0.725 -2.731 1.443 c -0.935 0.883 -1.583 1.988 -1.863 3.233 c -1.267 0.152 -2.444 0.7 -3.373 1.574 c -0.779 0.697 -1.367 1.595 -1.69 2.591 c -0.417 1.291 -0.417 2.633 -0.024 3.854 c -1.206 0.475 -2.235 1.349 -2.944 2.481 c -0.548 0.868 -0.868 1.878 -0.911 2.962 c -0.064 1.291 0.292 2.533 0.959 3.604 c -0.768 0.987 -1.221 2.208 -1.279 3.505 c -0.049 1.06 0.17 2.082 0.648 2.999 c 0.612 1.215 1.553 2.177 2.719 2.761 c -0.49 1.185 -0.643 2.54 -0.317 3.854 c 0.244 0.996 0.743 1.946 1.428 2.713 c 0.834 0.917 1.933 1.559 3.236 1.839 c 0.155 1.254 0.697 2.457 1.559 3.398 c 0.685 0.755 1.583 1.346 2.594 1.696 c 1.251 0.405 2.643 0.405 3.873 0.019 c 0.478 1.196 1.352 2.243 2.506 2.974 c 0.91 0.554 1.939 0.862 3.23 0.898 c 1.172 0 2.326 -0.344 3.297 -0.953 c 0.993 0.767 2.208 1.208 3.504 1.279 c 0.024 0 0.231 0.012 0.244 0.012 c 0.986 0 1.921 -0.219 2.768 -0.648 c 1.184 -0.6 2.152 -1.574 2.731 -2.73 c 1.206 0.511 2.606 0.633 3.86 0.316 c 1.011 -0.244 1.945 -0.73 2.731 -1.434 c 0.423 -0.386 0.767 -0.843 1.066 -1.328 c 1.267 1.763 2.944 4.345 4.503 6.991 c -3.849 -2.183 -8.181 -2.426 -12.638 -0.487 c -0.786 0.356 -1.16 1.251 -0.819 2.046 c 0.35 0.791 1.267 1.16 2.046 0.815 c 6.028 -2.606 11.63 -0.356 15.783 6.366 c 0.048 0.088 0.131 0.125 0.191 0.192 c 0.125 0.256 0.25 0.5 0.381 0.767 c 1.203 2.658 2.493 5.407 4.01 8.038 c 0.079 0.207 0.131 0.401 0.191 0.627 c 0.131 0.28 0.326 0.487 0.551 0.651 c 2.704 4.396 6.171 8.281 11.396 10.468 c -3.334 0.268 -6.652 0.767 -9.877 1.248 c -0.393 0.067 -0.804 0.116 -1.196 0.158 c -0.106 -0.024 -0.137 -0.098 -0.25 -0.098 c -10.37 0.214 -16.879 -4.323 -18.337 -12.86 c -0.144 -0.84 -0.911 -1.425 -1.803 -1.266 c -0.861 0.146 -1.428 0.949 -1.267 1.802 c 1.16 6.698 5.051 11.362 10.994 13.7 c -4.683 0.427 -8.628 0.585 -11.953 0.171 c 0.399 -4.536 0.487 -15.107 -6.789 -21.229 c -2.701 -2.263 -6.61 -2.631 -10.06 -2.963 c -2.999 -0.28 -5.843 -0.548 -6.945 -1.912 c -0.922 -1.172 -0.606 -2.313 0.061 -4.079 c 0.536 -1.446 1.279 -3.435 -0.387 -4.832 c -3.367 -2.838 -10.205 -0.344 -15.089 5.443 c -5.026 5.968 -6.241 12.906 -2.78 15.811 c 1.352 1.146 3.215 0.512 4.82 -0.438 c 1.333 -0.791 2.661 -1.498 3.998 -0.755 c 1.543 0.864 2.286 3.604 3.078 6.516 c 0.911 3.349 1.946 7.148 4.64 9.414 c 3.361 2.825 7.794 4.28 13.162 4.28 c 5.907 0 10.827 -1.754 11.043 -1.826 c 0.201 -0.08 0.375 -0.22 0.511 -0.384 c 4.963 0.706 10.601 0.158 16.654 -0.433 c 2.746 -0.28 5.581 -0.706 8.418 -1.163 c 0.387 -0.049 0.755 -0.109 1.142 -0.152 c -3.791 2.825 -6.104 6.704 -6.753 11.436 c -1.927 -2.533 -4.89 -4.743 -9.198 -4.743 c -1.72 0 -3.583 0.371 -5.553 1.047 c -9.499 3.361 -10.464 11.479 -8.917 26.172 c 0.548 5.328 0.073 10.838 -4.022 20.471 c -0.048 0.098 -0.024 0.207 -0.048 0.305 c -0.021 0.109 -0.034 0.158 -0.034 0.256 c -0.012 0.384 0.058 0.719 0.289 1.011 h 0.012 c 0 0.013 0 0.013 0 0.013 c 0.305 0.383 0.752 0.584 1.209 0.584 c 0.094 0 0.173 -0.012 0.268 -0.023 c 1.172 -0.207 28.933 -5.188 37.774 -19.882 c 2.923 -4.871 3.458 -10.267 1.571 -15.978 c -0.804 -2.509 -4.326 -6.139 -8.585 -6.139 c -0.63 0 -1.23 0.195 -1.839 0.348 c -0.301 -8.221 4.738 -13.877 14.191 -16.026 c 4.059 -0.231 8.056 0.024 11.853 1.163 c -1.863 1.156 -3.678 2.479 -5.398 4.274 c -4.561 4.749 -6.829 10.839 -6.375 17.208 c 0.5 7.026 4.241 13.736 10.264 18.438 c 0.283 0.207 0.624 0.335 0.95 0.335 c 0.454 0 0.91 -0.207 1.221 -0.603 c 0.53 -0.676 0.393 -1.668 -0.274 -2.204 c -5.325 -4.153 -8.634 -10.06 -9.067 -16.216 c -0.387 -5.468 1.571 -10.729 5.514 -14.809 c 2.183 -2.223 4.506 -3.806 6.908 -5.006 c 2.433 1.182 4.738 2.765 6.909 5.006 c 3.93 4.08 5.879 9.341 5.514 14.809 c -0.433 6.138 -3.748 12.062 -9.067 16.216 c -0.667 0.536 -0.797 1.504 -0.268 2.204 c 0.305 0.39 0.767 0.603 1.221 0.603 c 0.344 0 0.667 -0.128 0.947 -0.335 c 6.028 -4.701 9.767 -11.411 10.26 -18.438 c 0.451 -6.363 -1.814 -12.459 -6.369 -17.208 c -1.72 -1.767 -3.534 -3.118 -5.398 -4.274 c 3.796 -1.151 7.792 -1.395 11.859 -1.163 c 9.45 2.155 14.485 7.806 14.182 16.026 c -0.615 -0.146 -1.206 -0.348 -1.852 -0.348 c -4.244 0 -7.758 3.63 -8.573 6.139 c -1.894 5.736 -1.352 11.106 1.571 15.978 c 8.841 14.693 36.596 19.675 37.776 19.882 c 0.092 0.012 0.171 0.023 0.269 0.023 c 0.03 0 0.055 0 0.079 0 c 0.864 0 1.559 -0.688 1.559 -1.559 c 0 -0.384 -0.128 -0.742 -0.371 -1.011 c -3.934 -9.377 -4.385 -14.821 -3.843 -20.058 c 1.547 -14.705 0.597 -22.811 -8.921 -26.184 c -1.942 -0.676 -3.812 -1.047 -5.541 -1.047 c -4.299 0 -7.271 2.21 -9.206 4.743 c -0.652 -4.731 -2.978 -8.61 -6.753 -11.436 c 0.383 0.062 0.755 0.122 1.139 0.152 c 2.85 0.438 5.656 0.883 8.421 1.163 c 6.053 0.609 11.691 1.169 16.647 0.433 c 0.141 0.146 0.317 0.28 0.518 0.384 c 0.195 0.072 5.115 1.826 11.04 1.826 c 5.37 0 9.804 -1.431 13.165 -4.28 c 2.703 -2.247 3.727 -6.065 4.64 -9.414 c 0.792 -2.911 1.534 -5.651 3.075 -6.516 c 1.346 -0.73 2.673 -0.036 3.994 0.755 c 1.613 0.938 3.477 1.584 4.835 0.438 C 192.306 92.453 191.082 85.514 186.064 79.546 Z M 104.239 74.566 c -0.062 0 -0.101 0.061 -0.144 0.061 c -0.487 -0.636 -0.916 -1.315 -1.303 -2.083 c -0.119 -0.231 -0.144 -0.511 -0.256 -0.755 l 9.989 0.975 c 0.42 0.536 0.877 1.06 1.327 1.495 L 104.239 74.566 Z M 122.505 57.991 l -8.938 10.948 c -0.438 -0.728 -0.871 -1.507 -1.261 -2.35 l 7.605 -10.193 C 120.856 56.944 121.739 57.479 122.505 57.991 Z M 101.096 64.482 l 8.117 2.825 c 0.347 0.728 0.706 1.428 1.09 2.107 l -8.766 -0.855 C 101.264 67.244 101.139 65.885 101.096 64.482 Z M 101.133 61.197 c 0.063 -0.922 0.183 -1.878 0.304 -2.801 l 5.633 3.324 c 0.183 0.597 0.39 1.172 0.615 1.751 L 101.133 61.197 Z M 104.226 49.978 l -0.843 -0.767 c 0.146 -0.523 0.307 -1.023 0.45 -1.507 C 103.952 48.418 104.083 49.186 104.226 49.978 Z M 105.237 55.141 c 0.013 0.012 0.03 0 0.043 0.012 c 0.161 0.731 0.362 1.474 0.548 2.213 l -3.839 -2.274 c 0.148 -0.843 0.328 -1.659 0.511 -2.463 L 105.237 55.141 Z M 127.803 68.099 c -0.95 3.958 -3.221 5.967 -6.698 5.967 c -0.091 0 -0.134 -0.012 -0.213 -0.012 l 7.143 -8.601 C 128.083 66.285 128.029 67.161 127.803 68.099 Z M 126.835 62.013 l -9.237 11.131 c -0.743 -0.387 -1.425 -0.923 -2.107 -1.647 l 9.487 -11.591 C 125.751 60.609 126.36 61.316 126.835 62.013 Z M 117.141 54.885 l -6.229 8.342 c -0.311 -0.816 -0.59 -1.671 -0.87 -2.53 l 4.92 -7.027 c 0.316 0.18 0.651 0.399 0.956 0.561 C 116.374 54.462 116.727 54.667 117.141 54.885 Z M 112.349 51.975 l -3.416 4.868 c -0.25 -0.959 -0.469 -1.939 -0.688 -2.887 l 2.424 -3.297 C 111.235 51.156 111.789 51.561 112.349 51.975 Z M 108.385 48.47 l -0.993 1.364 c -0.194 -1.096 -0.39 -2.159 -0.548 -3.154 C 107.362 47.286 107.892 47.947 108.385 48.47 Z M 111.429 78.999 c -0.353 0 -0.56 -0.052 -0.646 -0.076 c -1.218 -0.332 -2.265 -0.804 -3.251 -1.352 l 7.636 -0.244 c -0.073 0.089 -0.104 0.18 -0.171 0.28 C 114.06 78.56 112.532 78.999 111.429 78.999 Z M 136.389 59.745 c 0.396 -0.463 0.444 -1.124 0.188 -1.672 c -0.256 -0.575 -0.853 -0.91 -1.449 -0.91 c -1.077 0 -2.046 -0.551 -2.612 -1.474 c -0.256 -0.398 -0.401 -0.91 -0.438 -1.434 c -0.036 -0.91 0.341 -1.775 1.018 -2.411 c 0.347 -0.32 0.529 -0.768 0.505 -1.23 c -0.024 -0.447 -0.256 -0.892 -0.64 -1.172 c -0.693 -0.536 -1.169 -1.389 -1.199 -2.262 c -0.019 -0.536 0.098 -1.035 0.341 -1.522 c 0.469 -0.947 1.419 -1.595 2.503 -1.684 c 0.615 -0.048 1.139 -0.448 1.346 -1.023 c 0.207 -0.584 0.061 -1.227 -0.39 -1.659 c -0.779 -0.752 -1.096 -1.839 -0.841 -2.898 c 0.135 -0.512 0.378 -0.959 0.719 -1.352 c 0.585 -0.649 1.389 -0.987 2.399 -0.987 c 0.012 0 0.012 0 0.012 0 c 0.476 0 0.914 -0.155 1.23 -0.511 c 0.316 -0.344 0.45 -0.804 0.384 -1.267 c -0.128 -0.904 0.14 -1.8 0.755 -2.469 c 0.359 -0.377 0.779 -0.649 1.291 -0.828 c 0.998 -0.344 2.155 -0.113 2.978 0.584 c 0.463 0.402 1.12 0.487 1.681 0.231 c 0.548 -0.268 0.913 -0.828 0.907 -1.434 c -0.019 -1.083 0.548 -2.107 1.455 -2.667 c 0.414 -0.268 0.92 -0.411 1.596 -0.451 c 0.877 0 1.681 0.368 2.265 1.011 c 0.316 0.356 0.743 0.5 1.218 0.512 c 0.463 -0.024 0.89 -0.256 1.169 -0.624 c 0.555 -0.731 1.401 -1.172 2.473 -1.203 c 0.463 0 0.901 0.125 1.327 0.344 c 0.956 0.448 1.607 1.413 1.681 2.466 c 0.062 0.612 0.438 1.136 1.011 1.354 c 0.591 0.22 1.23 0.089 1.669 -0.368 c 0.761 -0.779 1.881 -1.096 2.953 -0.853 c 0.469 0.122 0.913 0.354 1.315 0.716 c 0.67 0.624 1.035 1.482 0.986 2.414 c -0.019 0.46 0.17 0.91 0.512 1.215 c 0.341 0.319 0.828 0.447 1.254 0.387 c 0.92 -0.125 1.827 0.155 2.466 0.767 c 0.39 0.369 0.664 0.78 0.835 1.267 c 0.353 1.047 0.134 2.18 -0.591 2.987 c -0.384 0.46 -0.42 1.12 -0.165 1.671 c 0.244 0.56 0.847 0.907 1.443 0.907 c 1.06 0 2.021 0.539 2.594 1.456 c 0.256 0.405 0.408 0.91 0.433 1.428 c 0.043 0.91 -0.335 1.787 -1.011 2.417 c -0.341 0.32 -0.523 0.762 -0.505 1.225 c 0.023 0.459 0.249 0.897 0.621 1.172 c 0.73 0.548 1.175 1.395 1.218 2.286 c 0.024 0.524 -0.086 1.023 -0.323 1.48 c -0.487 0.971 -1.431 1.607 -2.515 1.69 c -0.615 0.049 -1.145 0.447 -1.352 1.035 c -0.207 0.572 -0.055 1.215 0.384 1.656 c 0.767 0.73 1.102 1.854 0.858 2.889 c -0.134 0.511 -0.384 0.959 -0.731 1.364 c -0.572 0.648 -1.382 0.986 -2.398 0.986 c -0.006 0 -0.013 0 -0.013 0 c -0.475 -0.024 -0.913 0.155 -1.224 0.524 c -0.311 0.344 -0.444 0.804 -0.39 1.267 c 0.134 0.865 -0.152 1.787 -0.779 2.463 c -0.341 0.377 -0.779 0.667 -1.261 0.84 c -0.986 0.329 -2.174 0.113 -2.965 -0.584 c -0.476 -0.402 -1.133 -0.5 -1.688 -0.231 c -0.566 0.256 -0.913 0.804 -0.913 1.428 c 0.013 1.096 -0.536 2.095 -1.431 2.654 c -0.463 0.292 -0.95 0.424 -1.639 0.451 c -0.864 0 -1.674 -0.356 -2.253 -0.999 c -0.316 -0.344 -0.646 -0.512 -1.224 -0.512 c -0.45 0.037 -0.895 0.256 -1.175 0.637 c -0.548 0.73 -1.376 1.172 -2.266 1.19 l -0.134 1.571 v -1.559 c -0.499 0 -0.962 -0.113 -1.389 -0.317 c -0.949 -0.487 -1.607 -1.434 -1.692 -2.509 c -0.049 -0.636 -0.438 -1.16 -1.035 -1.364 c -0.152 -0.064 -0.341 -0.088 -0.523 -0.088 c -0.396 0 -0.816 0.158 -1.121 0.475 c -0.73 0.755 -1.856 1.083 -2.898 0.828 c -0.511 -0.125 -0.962 -0.353 -1.346 -0.704 c -0.676 -0.624 -1.035 -1.47 -0.998 -2.438 c 0.019 -0.447 -0.165 -0.904 -0.518 -1.203 c -0.348 -0.32 -0.798 -0.399 -1.255 -0.386 c -0.864 0.137 -1.814 -0.149 -2.472 -0.755 c -0.384 -0.356 -0.658 -0.804 -0.847 -1.303 C 135.463 61.681 135.689 60.548 136.389 59.745 Z M 70.861 56.396 l 7.608 10.193 c -0.393 0.843 -0.825 1.623 -1.261 2.35 l -8.942 -10.936 C 69.034 57.479 69.926 56.944 70.861 56.396 Z M 81.559 67.307 l 8.12 -2.825 c -0.043 1.403 -0.167 2.762 -0.436 4.077 l -8.756 0.855 C 80.856 68.735 81.224 68.035 81.559 67.307 Z M 88.799 55.092 l -3.852 2.274 c 0.186 -0.74 0.384 -1.482 0.548 -2.213 c 0.013 -0.012 0.031 0 0.043 -0.012 l 2.737 -2.518 C 88.47 53.427 88.638 54.249 88.799 55.092 Z M 86.549 49.978 c 0.143 -0.792 0.274 -1.559 0.387 -2.274 c 0.137 0.483 0.292 0.983 0.436 1.507 L 86.549 49.978 Z M 83.706 61.72 l 5.629 -3.324 c 0.131 0.922 0.244 1.878 0.308 2.801 l -6.555 2.274 C 83.307 62.886 83.511 62.311 83.706 61.72 Z M 78.262 72.763 l 9.977 -0.975 c -0.1 0.244 -0.131 0.524 -0.255 0.755 c -0.375 0.767 -0.804 1.446 -1.291 2.083 c -0.064 0 -0.101 -0.061 -0.143 -0.061 l -9.597 -0.308 C 77.4 73.823 77.839 73.299 78.262 72.763 Z M 79.982 78.922 c -0.097 0.024 -0.304 0.076 -0.648 0.076 c -1.096 0 -2.624 -0.438 -3.559 -1.392 c -0.088 -0.101 -0.113 -0.191 -0.167 -0.28 l 7.63 0.244 C 82.248 78.125 81.2 78.6 79.982 78.922 Z M 83.931 46.68 c -0.159 0.996 -0.356 2.059 -0.551 3.154 l -0.99 -1.364 C 82.884 47.947 83.414 47.286 83.931 46.68 Z M 80.119 50.66 l 2.42 3.297 c -0.219 0.947 -0.436 1.928 -0.685 2.887 l -3.431 -4.868 C 78.987 51.561 79.541 51.156 80.119 50.66 Z M 75.805 53.67 l 4.92 7.027 c -0.28 0.88 -0.572 1.714 -0.886 2.53 l -6.229 -8.342 c 0.417 -0.231 0.779 -0.423 1.224 -0.654 C 75.157 54.07 75.488 53.85 75.805 53.67 Z M 65.81 59.906 l 9.472 11.603 c -0.648 0.707 -1.364 1.254 -2.095 1.635 l -9.234 -11.131 C 64.412 61.316 65.018 60.609 65.81 59.906 Z M 62.96 68.099 c -0.222 -0.938 -0.274 -1.814 -0.222 -2.646 l 7.146 8.601 c -0.088 0 -0.131 0.012 -0.213 0.012 C 66.172 74.066 63.922 72.057 62.96 68.099 Z M 50.404 65.143 c -0.356 0.304 -0.539 0.755 -0.518 1.19 c 0.037 0.95 -0.326 1.815 -0.992 2.451 c -0.387 0.356 -0.843 0.588 -1.358 0.691 c -0.999 0.28 -2.165 -0.073 -2.896 -0.828 c -0.417 -0.423 -1.072 -0.585 -1.644 -0.387 c -0.594 0.207 -0.986 0.73 -1.035 1.361 c -0.094 1.072 -0.73 2.025 -1.689 2.512 c -0.42 0.204 -0.904 0.316 -1.392 0.316 v 1.559 l -0.125 -1.571 c -0.91 -0.037 -1.738 -0.466 -2.29 -1.197 c -0.28 -0.374 -0.703 -0.6 -1.172 -0.63 c -0.037 0 -0.061 0 -0.085 0 c -0.426 0 -0.861 0.18 -1.154 0.511 c -0.594 0.643 -1.397 0.987 -2.433 0.987 H 31.61 c -0.499 -0.016 -0.986 -0.149 -1.428 -0.405 c -0.911 -0.594 -1.458 -1.592 -1.458 -2.688 c 0.012 -0.63 -0.356 -1.172 -0.91 -1.428 c -0.551 -0.268 -1.206 -0.155 -1.684 0.231 c -0.804 0.679 -2.046 0.904 -2.944 0.597 c -0.518 -0.167 -0.953 -0.46 -1.303 -0.865 c -0.612 -0.651 -0.898 -1.586 -0.761 -2.463 c 0.063 -0.438 -0.168 -0.904 -0.46 -1.242 c -0.295 -0.332 -0.831 -0.536 -1.279 -0.536 c -0.904 0 -1.696 -0.356 -2.271 -0.975 c -0.359 -0.398 -0.615 -0.877 -0.722 -1.364 c -0.25 -1.059 0.085 -2.17 0.846 -2.913 c 0.445 -0.411 0.606 -1.072 0.387 -1.645 c -0.198 -0.587 -0.728 -0.986 -1.352 -1.035 c -1.099 -0.088 -2.022 -0.718 -2.515 -1.702 c -0.228 -0.438 -0.347 -0.935 -0.323 -1.458 c 0.049 -0.913 0.487 -1.741 1.215 -2.289 c 0.381 -0.28 0.6 -0.694 0.625 -1.173 c 0.024 -0.456 -0.155 -0.91 -0.5 -1.221 c -0.679 -0.63 -1.06 -1.498 -1.008 -2.408 c 0.024 -0.536 0.167 -1.035 0.436 -1.452 c 0.56 -0.91 1.522 -1.44 2.643 -1.44 c 0.642 -0.027 1.172 -0.35 1.434 -0.91 c 0.256 -0.551 0.17 -1.206 -0.216 -1.678 c -0.707 -0.837 -0.917 -1.945 -0.594 -2.986 c 0.162 -0.487 0.441 -0.91 0.85 -1.279 c 0.648 -0.618 1.531 -0.898 2.469 -0.755 c 0.435 0.055 0.91 -0.088 1.251 -0.393 c 0.344 -0.304 0.53 -0.755 0.512 -1.208 c -0.049 -0.917 0.319 -1.791 0.999 -2.42 c 0.387 -0.375 0.834 -0.6 1.303 -0.709 c 1.047 -0.244 2.189 0.073 2.956 0.853 c 0.417 0.438 1.084 0.582 1.663 0.375 c 0.575 -0.21 0.956 -0.743 0.999 -1.352 c 0.088 -1.081 0.725 -2.022 1.708 -2.488 c 0.393 -0.207 1.029 -0.35 1.479 -0.313 c 0.904 0.024 1.72 0.462 2.274 1.184 c 0.28 0.375 0.7 0.606 1.172 0.63 c 0.463 0.012 0.911 -0.162 1.218 -0.511 c 0.609 -0.648 1.406 -1.011 2.387 -1.011 c 0.012 0 0.012 0 0.012 0 c 0.548 0.033 1.047 0.183 1.471 0.45 c 0.91 0.561 1.474 1.583 1.455 2.667 c -0.006 0.618 0.347 1.172 0.895 1.428 c 0.563 0.244 1.212 0.158 1.69 -0.222 c 0.825 -0.694 1.945 -0.917 2.987 -0.594 c 0.499 0.167 0.919 0.45 1.26 0.816 c 0.63 0.682 0.91 1.592 0.768 2.484 c -0.067 0.441 0.173 0.901 0.475 1.233 c 0.292 0.35 0.84 0.536 1.285 0.536 c 0.889 0 1.689 0.362 2.274 1.011 c 0.35 0.374 0.588 0.815 0.691 1.339 c 0.268 1.047 -0.055 2.14 -0.84 2.896 c -0.436 0.417 -0.594 1.072 -0.387 1.656 c 0.207 0.582 0.743 0.974 1.358 1.023 c 1.099 0.095 2.028 0.719 2.515 1.696 c 0.231 0.463 0.347 0.962 0.329 1.453 c -0.061 0.91 -0.505 1.766 -1.208 2.301 c -0.375 0.28 -0.606 0.707 -0.63 1.172 c -0.036 0.463 0.155 0.91 0.5 1.23 c 0.679 0.621 1.06 1.483 1.011 2.375 c -0.024 0.561 -0.17 1.072 -0.444 1.483 c -0.554 0.911 -1.513 1.446 -2.661 1.446 c -0.685 -0.048 -1.172 0.332 -1.428 0.911 c -0.262 0.551 -0.162 1.194 0.237 1.684 c 0.691 0.807 0.911 1.939 0.579 2.975 c -0.149 0.475 -0.429 0.922 -0.816 1.267 c -0.661 0.612 -1.623 0.911 -2.475 0.767 C 51.196 64.713 50.739 64.823 50.404 65.143 Z M 31.634 111.238 c -4.619 0 -8.379 -1.182 -11.167 -3.532 c -1.946 -1.644 -2.804 -4.798 -3.641 -7.843 c -0.959 -3.556 -1.876 -6.929 -4.558 -8.418 c -0.886 -0.5 -1.796 -0.743 -2.731 -0.743 c -1.75 0 -3.206 0.841 -4.345 1.522 c -0.462 0.271 -1.172 0.679 -1.248 0.739 c -1.778 -1.494 -0.91 -6.551 3.172 -11.41 c 3.249 -3.858 6.884 -5.587 9.024 -5.587 c 0.691 0 1.261 0.183 1.589 0.368 c 0.031 0.244 -0.255 1.011 -0.429 1.522 c -0.667 1.79 -1.689 4.509 0.429 7.14 c 1.946 2.387 5.407 2.73 9.079 3.041 c 3.142 0.308 6.378 0.612 8.342 2.238 c 5.906 4.972 6.031 14.008 5.718 18.222 c -2.935 -0.853 -5.337 -2.424 -7.401 -5.061 c 1.866 -2.594 1.629 -6.211 -0.804 -8.427 c -2.5 -2.302 -6.759 -2.095 -9.061 0.408 c -1.166 1.254 -1.738 2.898 -1.684 4.615 c 0.076 1.692 0.819 3.275 2.077 4.445 c 1.184 1.084 2.731 1.687 4.335 1.687 c 0.977 0 1.933 -0.28 2.792 -0.7 c 1.921 2.43 4.141 4.049 6.616 5.121 C 36.019 110.933 33.924 111.238 31.634 111.238 Z M 26.105 102.189 c -0.649 -0.597 -1.035 -1.419 -1.075 -2.29 c -0.043 -0.876 0.262 -1.698 0.868 -2.362 c 0.636 -0.694 1.51 -1.083 2.451 -1.083 c 0.822 0 1.607 0.304 2.208 0.864 c 1.352 1.229 1.44 3.324 0.216 4.664 C 29.588 103.273 27.393 103.364 26.105 102.189 Z M 70.681 146.823 l -6.366 -12.203 c 0.423 -1.278 0.685 -2.521 0.816 -3.744 l 7.782 11.118 c 0.101 0.128 0.244 0.098 0.362 0.171 c -0.375 1.12 -0.861 2.204 -1.492 3.245 C 71.466 145.921 71.022 146.348 70.681 146.823 Z M 42.939 126.351 l 19.08 2.18 c 0.192 1.303 0.076 2.733 -0.356 4.269 l -19.909 -2.082 C 41.974 128.958 42.397 127.569 42.939 126.351 Z M 60.573 135.801 c -0.566 1.242 -1.248 2.509 -2.058 3.812 l -16.885 -0.999 c -0.106 -1.777 -0.119 -3.349 -0.082 -4.804 L 60.573 135.801 Z M 53.738 146.189 l -11.56 -0.377 c -0.031 -0.628 -0.037 -1.255 -0.098 -1.815 c -0.094 -0.815 -0.134 -1.485 -0.188 -2.24 l 14.602 0.883 C 55.635 143.827 54.712 145.008 53.738 146.189 Z M 47.783 152.851 l -5.903 -0.292 c 0.186 -1.304 0.28 -2.484 0.332 -3.617 l 8.958 0.292 C 50.048 150.463 48.918 151.664 47.783 152.851 Z M 41.255 155.652 l 3.541 0.164 c -1.714 1.687 -3.392 3.222 -4.917 4.567 C 40.439 158.703 40.926 157.101 41.255 155.652 Z M 46.842 158.178 l -0.511 3.094 c -1.458 0.463 -2.844 0.858 -4.077 1.176 C 43.618 161.242 45.176 159.792 46.842 158.178 Z M 50.52 154.513 c 0.95 -0.999 1.902 -2.016 2.85 -3.081 l 0.319 7.148 c -1.354 0.572 -2.694 1.096 -4.01 1.547 l 0.904 -5.407 C 50.583 154.653 50.52 154.592 50.52 154.513 Z M 56.332 147.943 c 0.706 -0.877 1.416 -1.766 2.07 -2.655 l 2.433 9.694 c 0.012 0.049 0.067 0.073 0.094 0.134 c -1.367 0.768 -2.746 1.468 -4.165 2.144 L 56.332 147.943 Z M 60.752 141.854 c 0.743 -1.176 1.41 -2.338 1.998 -3.502 l 5.785 11.095 c -1.428 1.425 -3.118 2.728 -4.896 3.922 L 60.752 141.854 Z M 48.931 121.09 c 1.617 -0.579 3.124 -0.871 4.503 -0.871 c 4.259 0 6.573 2.825 7.73 5.066 l -16.237 -1.863 C 45.983 122.429 47.298 121.663 48.931 121.09 Z M 73.043 132.026 c 0.679 2.082 0.91 4.049 0.88 5.967 l -6.929 -9.889 c 0.137 -0.012 0.301 -0.078 0.438 -0.078 C 70.218 128.026 72.599 130.656 73.043 132.026 Z M 147.831 126.351 c 0.548 1.218 0.962 2.606 1.182 4.348 l -19.912 2.082 c -0.408 -1.522 -0.548 -2.953 -0.353 -4.256 L 147.831 126.351 Z M 119.01 145.428 c -0.651 -1.06 -1.139 -2.144 -1.491 -3.246 c 0.104 -0.091 0.262 -0.061 0.347 -0.182 l 7.794 -11.119 c 0.134 1.205 0.39 2.466 0.804 3.744 L 120.1 146.84 C 119.742 146.348 119.303 145.934 119.01 145.428 Z M 128.016 138.359 c 0.597 1.175 1.242 2.325 1.979 3.507 l -2.887 11.533 c -1.771 -1.193 -3.465 -2.473 -4.89 -3.922 L 128.016 138.359 Z M 129.934 154.982 l 2.437 -9.694 c 0.657 0.89 1.363 1.778 2.07 2.655 l -0.408 9.316 c -1.425 -0.67 -2.808 -1.364 -4.184 -2.144 C 129.855 155.049 129.922 155.031 129.934 154.982 Z M 142.984 152.851 c -1.139 -1.182 -2.26 -2.388 -3.367 -3.617 l 8.963 -0.292 c 0.049 1.133 0.134 2.313 0.329 3.617 L 142.984 152.851 Z M 148.695 144.009 c -0.061 0.572 -0.066 1.2 -0.104 1.814 l -11.557 0.365 c -0.975 -1.169 -1.894 -2.362 -2.753 -3.538 l 14.627 -0.895 C 148.805 142.511 148.774 143.194 148.695 144.009 Z M 137.394 151.432 c 0.949 1.065 1.905 2.082 2.85 3.081 c 0 0.079 -0.073 0.134 -0.062 0.207 l 0.908 5.432 c -1.315 -0.463 -2.661 -0.986 -4.014 -1.56 L 137.394 151.432 Z M 143.927 158.178 c 1.669 1.614 3.239 3.058 4.598 4.281 c -1.242 -0.329 -2.618 -0.719 -4.092 -1.182 L 143.927 158.178 Z M 145.956 155.816 l 3.556 -0.164 c 0.329 1.443 0.815 3.051 1.376 4.762 C 149.34 159.038 147.691 157.502 145.956 155.816 Z M 149.146 138.614 l -16.886 1.012 c -0.815 -1.304 -1.491 -2.582 -2.058 -3.824 l 19.022 -1.967 C 149.261 135.265 149.25 136.836 149.146 138.614 Z M 123.34 128.026 c 0.134 0 0.292 0.066 0.438 0.078 l -6.93 9.901 c -0.049 -1.931 0.183 -3.897 0.877 -5.991 C 118.165 130.656 120.551 128.026 123.34 128.026 Z M 137.339 120.219 c 1.388 0 2.886 0.292 4.512 0.871 c 1.638 0.572 2.953 1.339 4.024 2.35 l -16.233 1.863 C 130.824 123.05 133.137 120.219 137.339 120.219 Z M 91.357 106.981 c 1.428 -0.469 2.755 -1.188 4.028 -2.027 c 1.272 0.84 2.612 1.559 4.028 2.027 c -1.373 0.348 -2.713 0.834 -4.028 1.383 C 94.063 107.815 92.721 107.329 91.357 106.981 Z M 187.008 92.921 c -0.256 -0.013 -0.944 -0.408 -1.425 -0.679 c -1.169 -0.683 -2.594 -1.522 -4.342 -1.522 c -0.932 0 -1.863 0.243 -2.728 0.73 c -2.691 1.483 -3.599 4.856 -4.562 8.431 c -0.834 3.045 -1.687 6.199 -3.641 7.855 c -2.789 2.35 -6.546 3.52 -11.168 3.52 c -2.289 0 -4.384 -0.305 -6.102 -0.652 c 2.467 -1.071 4.695 -2.709 6.613 -5.115 c 0.883 0.414 1.814 0.695 2.795 0.695 c 1.613 0 3.142 -0.604 4.335 -1.688 c 2.606 -2.387 2.777 -6.454 0.391 -9.061 c -2.302 -2.502 -6.559 -2.728 -9.073 -0.408 c -2.417 2.211 -2.655 5.834 -0.792 8.428 c -2.033 2.631 -4.463 4.214 -7.398 5.061 c -0.316 -4.202 -0.188 -13.238 5.718 -18.207 c 1.942 -1.653 5.194 -1.945 8.337 -2.231 c 3.671 -0.351 7.143 -0.67 9.085 -3.057 c 2.125 -2.631 1.126 -5.325 0.426 -7.146 c -0.177 -0.5 -0.469 -1.267 -0.523 -1.352 c 1.656 -1.385 6.375 -0.07 10.704 5.063 C 187.757 86.418 188.627 91.469 187.008 92.921 Z M 159.997 101.982 c -1.218 -1.34 -1.133 -3.435 0.207 -4.664 c 0.621 -0.561 1.406 -0.864 2.217 -0.864 c 0.919 0 1.809 0.377 2.447 1.083 c 1.218 1.34 1.146 3.423 -0.194 4.652 c -0.621 0.561 -1.413 0.864 -2.229 0.864 C 161.5 103.053 160.642 102.665 159.997 101.982 Z"/>
		<path d="M 140.676 53.439 c 0 0.049 0.036 0.076 0.036 0.125 c 0.603 2.107 1.607 4.089 3.117 5.772 c 2.74 3.081 6.674 4.835 10.79 4.835 c 3.562 0 7.003 -1.318 9.67 -3.693 c 2.887 -2.594 4.598 -6.146 4.805 -10.02 c 0.207 -3.86 -1.097 -7.575 -3.678 -10.449 c -1.474 -1.659 -3.307 -2.889 -5.322 -3.705 c -0.079 -0.024 -0.122 -0.112 -0.188 -0.112 c -0.037 0 -0.067 0 -0.092 0 c 0 0 0 0 -0.006 0 c -1.662 -0.637 -3.397 -1.035 -5.2 -1.035 c -1.31 0 -2.582 0.231 -3.818 0.587 c -0.03 0 -0.042 -0.027 -0.066 -0.027 c -0.226 0.015 -0.359 0.134 -0.53 0.183 c -1.937 0.636 -3.738 1.595 -5.261 2.975 c -1.547 1.391 -2.728 3.054 -3.531 4.905 c -0.073 0.146 -0.201 0.283 -0.22 0.475 c 0 0.037 0.019 0.052 0.019 0.076 c -0.572 1.428 -0.975 2.95 -1.06 4.546 c -0.085 1.559 0.134 3.081 0.536 4.545 C 140.676 53.427 140.676 53.427 140.676 53.439 Z M 165.982 50.285 c -0.055 1.02 -0.298 1.994 -0.603 2.959 l -4.828 -0.28 l 0.334 -6.053 l 4.793 0.256 C 165.91 48.175 166.049 49.222 165.982 50.285 Z M 157.433 52.791 l -6.059 -0.332 l 0.329 -6.053 l 6.064 0.329 L 157.433 52.791 Z M 148.263 52.292 l -4.726 -0.268 c -0.207 -0.974 -0.347 -1.958 -0.292 -2.987 c 0.073 -1.06 0.316 -2.082 0.646 -3.054 l 4.688 0.256 L 148.263 52.292 Z M 144.713 55.217 l 3.385 0.192 l -0.183 3.398 c -0.646 -0.448 -1.235 -0.959 -1.76 -1.547 C 145.583 56.627 145.121 55.933 144.713 55.217 Z M 150.96 60.292 l 0.256 -4.716 l 6.046 0.332 l -0.255 4.737 C 154.998 61.047 152.915 60.914 150.96 60.292 Z M 160.198 59.538 l 0.183 -3.462 l 3.483 0.195 c -0.47 0.654 -1.023 1.303 -1.656 1.875 C 161.592 58.694 160.91 59.151 160.198 59.538 Z M 164.466 43.974 l -3.416 -0.18 l 0.177 -3.361 c 0.663 0.472 1.303 1.022 1.863 1.671 C 163.614 42.67 164.083 43.307 164.466 43.974 Z M 158.188 38.929 l -0.256 4.689 l -6.059 -0.329 l 0.256 -4.701 c 0.804 -0.183 1.632 -0.32 2.473 -0.32 C 155.844 38.287 157.043 38.554 158.188 38.929 Z M 148.939 39.833 l -0.177 3.288 l -3.294 -0.183 c 0.444 -0.624 0.968 -1.203 1.577 -1.739 C 147.618 40.676 148.263 40.22 148.939 39.833 Z"/>
		<path d="M 49.585 44.266 c -0.012 -0.144 -0.131 -0.231 -0.173 -0.365 c -0.816 -1.891 -2 -3.617 -3.581 -5.033 c -1.477 -1.33 -3.215 -2.277 -5.063 -2.901 c -0.204 -0.122 -0.387 -0.256 -0.633 -0.256 c -0.04 0 -0.07 0 -0.101 0 c -0.024 0 -0.04 0.027 -0.076 0.027 c -1.227 -0.356 -2.5 -0.587 -3.809 -0.587 c -1.802 0 -3.541 0.399 -5.2 1.035 c -0.006 0 -0.006 0 -0.006 0 c -0.024 0 -0.058 0 -0.094 0 c -0.088 0 -0.131 0.088 -0.186 0.113 c -2.009 0.816 -3.842 2.046 -5.325 3.705 c -2.582 2.874 -3.885 6.589 -3.681 10.449 c 0.207 3.873 1.927 7.426 4.807 10.02 c 2.67 2.375 6.104 3.693 9.673 3.693 c 4.113 0 8.05 -1.754 10.781 -4.823 c 1.507 -1.684 2.524 -3.666 3.118 -5.785 c 0 -0.049 0.049 -0.076 0.049 -0.125 c 0 -0.012 -0.012 -0.012 -0.012 -0.024 c 0.387 -1.458 0.63 -2.986 0.536 -4.545 c -0.088 -1.598 -0.481 -3.105 -1.06 -4.545 C 49.561 44.305 49.585 44.291 49.585 44.266 Z M 24.781 50.285 c -0.061 -1.063 0.095 -2.11 0.313 -3.118 l 4.808 -0.256 l 0.335 6.053 l -4.819 0.28 C 25.083 52.279 24.839 51.305 24.781 50.285 Z M 33.007 46.735 l 6.059 -0.329 l 0.332 6.053 l -6.056 0.332 L 33.007 46.735 Z M 42.178 46.239 l 4.683 -0.256 c 0.35 0.972 0.593 1.994 0.648 3.054 c 0.058 1.023 -0.073 2.007 -0.28 2.987 l -4.737 0.268 L 42.178 46.239 Z M 45.32 42.938 l -3.31 0.183 l -0.162 -3.288 c 0.661 0.387 1.322 0.843 1.921 1.367 C 44.336 41.736 44.86 42.314 45.32 42.938 Z M 38.637 38.594 l 0.256 4.7 l -6.074 0.344 l -0.256 -4.704 c 1.166 -0.381 2.344 -0.648 3.58 -0.648 C 37.002 38.287 37.833 38.405 38.637 38.594 Z M 29.527 40.433 l 0.18 3.361 l -3.41 0.18 c 0.386 -0.667 0.84 -1.303 1.379 -1.888 C 28.236 41.456 28.867 40.905 29.527 40.433 Z M 26.909 56.277 l 3.498 -0.195 l 0.18 3.498 c -0.703 -0.386 -1.404 -0.865 -2.006 -1.428 C 27.932 57.58 27.393 56.944 26.909 56.277 Z M 33.774 60.777 l -0.262 -4.868 l 6.046 -0.332 l 0.262 4.801 c -1.172 0.399 -2.399 0.669 -3.666 0.669 C 35.346 61.047 34.554 60.941 33.774 60.777 Z M 42.866 58.859 l -0.189 -3.45 l 3.386 -0.192 c -0.405 0.728 -0.88 1.428 -1.44 2.043 C 44.081 57.86 43.493 58.39 42.866 58.859 Z"/>
	</g>
</g>
<g>
</g>
<g>
</g>
<g>
</g>
<g>
</g>
<g>
</g>
<g>
</g>
<g>
</g>
<g>
</g>
<g>
</g>
<g>
</g>
<g>
</g>
<g>
</g>
<g>
</g>
<g>
</g>
<g>
</g>
</svg>